<?xml version="1.0" encoding="UTF-8" standalone="no"?>
<!DOCTYPE svg PUBLIC "-//W3C//DTD SVG 1.1//EN" "http://www.w3.org/Graphics/SVG/1.1/DTD/svg11.dtd">
<svg width="100%" height="100%" viewBox="0 0 1080 1080" version="1.1" xmlns="http://www.w3.org/2000/svg" xmlns:xlink="http://www.w3.org/1999/xlink" xml:space="preserve" xmlns:serif="http://www.serif.com/" style="fill-rule:evenodd;clip-rule:evenodd;stroke-linejoin:round;stroke-miterlimit:2;">
    <g id="Logo" transform="matrix(1.14064,0,0,1.14064,-98.0951,-74.2388)">
        <path d="M813.4,498.823C813.4,498.823 817.747,497.142 819.921,496.822C822.188,496.489 827,496.823 827,496.823C827,496.823 861.419,459.403 882.857,447.137C907.857,432.833 953,387 953,387C953,387 944.181,407.305 935.754,419.193C922.533,437.844 884.447,461.873 869.075,480.429C859.383,492.129 856,497.823 856,497.823C856,497.823 867.872,501.197 872.808,503.884C877.862,506.635 887.326,513.331 887.326,513.331C887.326,513.331 919.394,480.537 932.506,463.815C945.004,447.877 966,413 966,413C966,413 984.795,368.283 986.541,331.366C987.189,317.668 987.125,296.433 988.285,274.771C989.897,244.679 988.285,209.818 988.285,209.818C988.285,209.818 963.658,308.084 923.343,347C916.921,353.199 918.835,355.971 887.326,388.84C875.33,401.354 860.811,409.936 846.232,430.006C819.038,467.443 813.4,498.823 813.4,498.823Z" style="fill:white;"/>
        <path d="M981.936,127.273C981.852,122.297 959.405,188.259 924.966,231.897C892.379,273.188 870.37,301.747 861.517,314.048C815.761,377.619 797.505,421.975 794.716,451.504C791.859,481.754 792.716,494 792.716,494C792.716,494 794.668,496.776 796.707,496.822C798.592,496.865 800.552,494.232 801.115,493C811.72,469.772 821.128,431.663 901.348,352.63C949.787,304.908 983.574,225.036 981.936,127.273Z" style="fill:white;"/>
        <path d="M158,161C158,161 140.896,305.372 192,354C199.516,361.151 203.833,371.711 213.344,380.418C232.231,397.707 259.827,413.576 291.213,422.157C348.16,437.726 413.652,453.886 445,462C483.806,472.044 521.175,522.255 518.884,554.884C515.21,607.202 498.29,627.711 448.833,658C417.405,677.248 357.139,700 328,750C317.405,768.18 324.571,803.203 332,815C340.702,828.819 367,824 367,824C367,824 357.483,894.236 425,896.215C469.655,897.524 472,863 472,863C472,863 420.027,875.777 409,827C400.324,788.624 437,735 437,735C437,735 489.918,654.25 508,626C521.709,604.581 524.617,578.828 527,555C531.667,508.333 498.428,456.866 463,446C434.467,437.249 395.546,420.66 359.023,407.155C313.978,390.498 281.966,359.376 280,358C210.097,309.063 158,161 158,161Z" style="fill:white;"/>
        <path d="M86,257.25C86,257.25 92.91,287.035 103.699,324.259C116.372,367.98 135.535,421.963 172,450C229.277,494.039 291.898,480.58 354.947,485.765C381.492,487.948 411.573,485.855 438.755,495.184C471.512,506.427 486.618,526.147 492,540C502.806,567.815 497.075,585.531 483.833,595C462.363,610.353 432.279,612.929 422.392,608.518C411.836,603.809 411.761,589.711 406.956,588.765C402.731,587.932 397,597 397,597L396,625C396,625 296.683,620.938 266.477,627.13C224.489,635.738 215.533,665.723 215.533,665.723C215.533,665.723 226.12,659.618 246.707,659.052C298.927,657.615 399.189,659.207 434,646C470.056,632.32 515.974,585.761 506.744,555.239C478.744,462.648 423.883,472.675 379,460.455C341.26,450.18 265.754,454.589 208.643,410.054C135.74,353.206 86,257.25 86,257.25Z" style="fill:white;"/>
        <path d="M661,492C666.349,485.004 666.739,473.983 674,469C682.667,463.052 699.45,456.253 713,456.312C751.5,456.478 754.833,467.385 755,476C755.088,480.533 748.511,484.451 744,484C739,483.5 745.675,472.697 725,473C710.328,473.215 703,479.833 704,482C705,484.167 726.167,483 731,486C735.005,488.486 733.667,497.333 733,500C732.489,502.045 729.108,502 727,502C724.63,502 720.295,496.07 715.464,495.365C710.782,494.682 705.24,499.053 705,500C703.833,504.605 713.684,511.263 720,511.629C743,512.963 817.333,507.105 843,508C853.753,508.375 865,512.582 874,517C882.649,521.246 887.525,532.759 897,534.508C918.333,538.445 963.833,521.877 966,528.626C968.167,535.375 924.833,566.938 908,576C894.585,583.222 872.292,576.573 865,582C861.333,584.729 855.873,588.914 851.94,593.179C848.48,596.931 843.219,601.029 842,601C826.08,600.616 797,612.037 773,612.703C761.401,613.026 753.833,609.284 747,602C744.388,599.215 742.245,585.921 744.926,579.708C748.024,572.529 756,569 756,569C756,569 750.171,595.312 771,596C790.732,596.652 795.686,587.431 801,579.368C805.579,572.421 818.079,579.268 825,575C832.667,570.272 845.18,570.308 847,551C849.389,525.656 833.795,527.333 822,525C806.833,522 777.944,529.907 756,533C742.68,534.877 725.455,541.31 709.297,543.79C695.33,545.934 682.161,544.113 673,546C642.772,552.227 636.167,528.211 635.766,519C634.766,496 654.628,500.333 661,492Z" style="fill:white;"/>
        <path d="M568,589C568,589 541.16,621.135 543.175,654.453C545.787,697.639 564.727,708.271 586,710C633.167,713.833 653.333,651.833 676,629C693.019,611.856 706.268,591.332 722,573C741.167,550.667 797,537 797,537C797,537 776.693,536.412 754,540C741.145,542.033 710.308,559.064 684.842,582.528C671.294,595.011 651.023,616.959 648,619.481C622.869,640.447 627.559,659.87 589,659C542.773,657.957 568,589 568,589Z" style="fill:white;"/>
        <path d="M505,457.455C505,457.455 520.727,479.966 528.92,508.319C535.156,529.898 534.504,556.123 534,571C532.997,600.597 524.5,631 516,658C507.887,683.772 507.167,720.5 513,739C516.614,750.462 533,769 533,769C533,769 518.341,779.001 517,788C516.784,789.448 517.289,798.383 517.806,800.234C518.553,802.91 520.325,805.409 522,806C524.833,807 533,799 533,799L543.067,800C543.067,800 545.308,810.287 540,817C529.012,830.896 496.887,827.687 492,819C480.204,798.033 477.611,778.459 477,764C476.565,753.718 480,733 480,733L500,654C500,654 466.833,705.833 458,735C449.317,763.67 452.333,814.833 459,829C469.092,850.446 494.34,865.482 515,863C523.679,861.957 551.268,863.773 567,844C582.084,825.041 582,806 582,806L581,784L591,784C591,784 596.5,809.167 614,811C624.816,812.133 635.208,812.595 648,806C661.19,799.2 666,788 666,788C666,788 647.44,789.967 640,790C636.913,790.014 626.569,791.393 623.045,787.83C619.64,784.388 621.885,779.328 623,776C624.871,770.415 629.161,759.5 642,758C650.172,757.045 664.033,758.333 671.033,764C678.033,769.667 683.839,781.5 683,790C682.161,798.5 675.571,811.189 666,816C655.385,821.335 638.363,827.741 624,832C595.333,840.5 536.833,857.333 494,915C486.084,925.657 475,950 475,950C475,950 505.529,919.498 523,907C534.344,898.885 565.134,883.777 602.313,875.82C641.397,867.456 681.807,857.703 702,852C716.035,848.036 734.843,835.181 745.673,820.19C755.306,806.858 757.793,791 757.793,791C757.793,791 766.53,779.865 780.174,774.971C795.477,769.483 799.904,741 799.904,741C799.904,741 793.529,749.414 790.545,752.414C788.03,754.943 782,759 782,759L775,759C775,759 778.057,746.096 774.679,730.743C772.981,723.027 780.542,713.987 784,709.17C792.441,697.413 805.429,645.235 801.115,628.938C799.522,622.918 794.561,622.861 789.581,623.184C784.669,623.502 779.738,624.136 778,627.567C775.393,632.715 775.795,645.184 767.635,652.985C751.548,668.363 740.671,691.579 735,691C724.115,689.889 721.077,664.921 726.74,650.568C733.466,633.521 750.182,623.567 750.182,623.567C750.182,623.567 743.262,615.241 739.565,611.79C736.005,608.467 728,602.862 728,602.862C728,602.862 709.539,621.247 706.372,634.103C703.367,646.306 693.761,661.26 702,678C707.767,689.718 726.751,718.335 744.039,731.377C753.586,738.58 750.182,750 750.182,750C750.182,750 725.904,732.853 712.315,727.977C697.451,722.644 661,717 661,717C661,717 663.441,713.787 664.5,707.154C667,691.487 664,671 664,671C664,671 642.859,703.72 628.526,713.053C614.192,722.386 595.463,726.438 578,727C560.039,727.578 540.775,712.305 537.113,686.617C532.67,655.448 539.731,636.726 546,612.723C551.37,592.161 555.285,561.381 552.578,535.546C551.256,522.929 545.109,511.542 543.067,503C538.015,481.869 505,457.455 505,457.455Z" style="fill:white;"/>
        <path d="M116.478,407.927C116.478,407.927 133.413,521.821 197,551C217.538,560.424 246.929,563.589 281.155,556.48C319.867,548.44 363.526,532.883 378,529C400.177,523.05 435,517.333 441,562C441.548,566.08 436.798,578.33 430.911,580.56C425.024,582.79 420.237,574.828 417,574C414.681,573.407 410.915,591.995 419,596C427.226,600.075 448.812,601.53 462,596C477.5,589.5 490.5,560.332 470,527C458.945,509.025 444.255,503.611 375,507.005C332.937,509.067 262.186,519.795 218.138,506.655C151.051,486.642 116.478,407.927 116.478,407.927Z" style="fill:white;"/>
    </g>
</svg>
